<?xml version="1.0" standalone="no"?>
<!DOCTYPE svg PUBLIC "-//W3C//DTD SVG 20010904//EN"
 "http://www.w3.org/TR/2001/REC-SVG-20010904/DTD/svg10.dtd">
<svg version="1.0" xmlns="http://www.w3.org/2000/svg"
 width="586.000000pt" height="579.000000pt" viewBox="0 0 586.000000 579.000000"
 preserveAspectRatio="xMidYMid meet">

<g transform="translate(0.000000,579.000000) scale(0.100000,-0.100000)"
fill="#000000" stroke="none">
<path d="M0 2895 l0 -2895 2930 0 2930 0 0 2895 0 2895 -2930 0 -2930 0 0
-2895z m4705 1726 c-22 -21 -92 -51 -117 -51 -15 0 -45 -6 -65 -14 -24 -9 -94
-16 -190 -19 -136 -4 -157 -7 -208 -31 -31 -14 -70 -35 -88 -48 l-32 -22 20
23 c48 55 154 89 305 96 154 8 259 25 315 51 54 24 75 30 60 15z m-2635 -51
c12 -8 11 -9 -6 -10 -11 0 -45 -8 -75 -17 l-54 -17 50 -6 50 -6 -60 -8 c-33
-4 -80 -14 -104 -21 -39 -13 -42 -13 -30 2 8 9 30 23 49 31 31 13 33 16 15 23
-11 4 -14 8 -6 8 8 1 12 3 9 6 -7 7 -107 -28 -167 -59 -27 -13 -51 -22 -54
-20 -9 9 -95 -98 -122 -152 -33 -65 -55 -87 -55 -54 0 58 146 242 229 288 44
25 52 21 24 -11 -18 -20 -18 -20 16 -2 78 39 241 54 291 25z m307 -50 c124
-35 173 -63 273 -154 52 -47 122 -102 156 -122 65 -38 215 -155 249 -194 11
-13 14 -20 8 -16 -9 5 -13 -2 -13 -26 0 -32 -1 -32 -42 31 -41 63 -134 148
-215 197 l-41 24 13 -43 c15 -53 26 -132 16 -121 -4 5 -15 30 -25 56 -40 109
-151 242 -249 298 -29 16 -55 30 -59 30 -5 0 7 -20 26 -45 35 -46 80 -149 73
-169 -2 -6 -13 8 -25 30 -28 55 -114 148 -186 201 -66 49 -62 51 41 23z m-919
-251 c-30 -54 -86 -119 -100 -116 -6 1 -22 -14 -35 -33 -23 -33 -63 -59 -63
-41 0 19 63 92 104 120 25 18 60 50 77 71 41 51 46 51 17 -1z m2517 11 c10
-31 74 -87 140 -121 33 -18 67 -37 75 -44 8 -6 50 -27 92 -45 115 -50 86 -49
-36 1 -58 23 -104 45 -101 47 3 3 -14 14 -36 24 -61 27 -117 75 -140 119 -10
22 -15 39 -10 39 5 0 13 -9 16 -20z m-2297 -41 c35 -12 62 -48 61 -81 -1 -18
-3 -16 -10 9 -13 45 -44 63 -109 64 -40 0 -50 3 -35 9 28 12 57 12 93 -1z
m236 -37 c-22 -20 -49 -49 -58 -64 -18 -27 -36 -29 -36 -5 0 8 3 7 9 -2 7 -11
10 -9 15 7 4 12 28 40 54 62 59 50 71 52 16 2z m-302 -59 c-6 -2 -10 -8 -7
-12 6 -10 -137 -77 -184 -86 -22 -5 -29 -10 -21 -15 8 -5 -2 -10 -26 -14 -109
-16 -155 -17 -210 -5 l-59 13 112 12 c99 11 126 18 225 62 65 29 128 50 148
50 19 0 29 -2 22 -5z m-87 -165 l-6 -33 18 27 c20 32 43 44 43 24 0 -8 3 -23
7 -33 6 -16 5 -16 -10 -5 -14 12 -20 10 -41 -15 -22 -25 -25 -26 -31 -11 -7
17 -9 17 -34 -1 -14 -10 -46 -25 -71 -33 -37 -12 -46 -19 -48 -41 -4 -32 -22
-36 -29 -7 -9 34 -24 10 -18 -28 5 -28 4 -33 -4 -22 -6 8 -11 34 -11 58 0 39
2 43 23 41 12 -1 31 1 42 5 11 5 31 12 45 17 14 5 48 27 75 49 28 21 51 39 53
39 2 1 1 -14 -3 -31z m1762 -27 c132 -33 318 -61 404 -61 64 0 104 -23 195
-114 137 -138 190 -290 149 -431 l-14 -50 5 65 c12 132 -35 263 -132 367 l-53
58 -1 -30 -2 -30 -13 30 c-34 77 -88 99 -261 111 -82 5 -97 4 -86 -7 25 -26
11 -29 -25 -4 -50 33 -63 32 -30 -3 41 -43 33 -45 -25 -6 -29 19 -86 50 -127
70 -72 34 -123 64 -109 64 4 0 60 -13 125 -29z m1248 -87 c-16 -71 -53 -117
-119 -149 -41 -20 -63 -25 -86 -20 -42 9 -34 14 30 20 88 7 162 86 162 173 0
43 7 60 18 42 4 -7 2 -36 -5 -66z m-3272 -6 c3 -24 9 -54 13 -68 6 -24 6 -24
-9 -5 -9 11 -17 35 -17 53 0 36 -16 43 -23 10 -3 -14 -5 -9 -6 15 -1 30 3 37
18 37 14 0 20 -10 24 -42z m-103 3 c0 -11 -5 -21 -11 -23 -21 -7 -158 12 -191
26 -31 14 -26 14 85 15 109 1 117 0 117 -18z m605 -422 c4 -5 0 -18 -9 -28 -9
-10 -16 -22 -16 -28 0 -5 -13 -24 -30 -41 -16 -18 -30 -41 -30 -52 0 -13 -5
-17 -14 -14 -11 4 -12 12 -4 35 7 20 7 39 -1 60 -15 45 -14 56 8 62 18 4 19 0
16 -47 -4 -48 -4 -50 10 -26 8 14 14 35 15 47 0 31 42 55 55 32z m-249 -65
c-26 -15 -28 -19 -23 -57 5 -38 4 -40 -9 -23 -8 11 -14 26 -14 33 0 18 45 63
62 63 7 -1 0 -8 -16 -16z"/>
</g>
</svg>
